<?xml version="1.0" encoding="UTF-8" standalone="no"?><!DOCTYPE svg PUBLIC "-//W3C//DTD SVG 1.1//EN" "http://www.w3.org/Graphics/SVG/1.1/DTD/svg11.dtd"><!-- Generated by graphviz version 2.40.1 (20161225.0304)
 --><!-- Title: MCD_plateformedb Pages: 1 --><svg xmlns="http://www.w3.org/2000/svg" xmlns:xlink="http://www.w3.org/1999/xlink" width="691pt" height="433pt" viewBox="0.00 0.00 690.98 432.60">
<g id="graph0" class="graph" transform="scale(1 1) rotate(0) translate(4 428.6)">
<title>MCD_plateformedb</title>
<polygon fill="#ffffff" stroke="transparent" points="-4,4 -4,-428.6 686.9789,-428.6 686.9789,4 -4,4"/>
<!-- personne -->
<g id="node1" class="node">
<title>personne</title>
<polygon fill="none" stroke="#000000" points="0,-316.1 0,-424.1 147.4922,-424.1 147.4922,-316.1 0,-316.1"/>
<text text-anchor="middle" x="73.7461" y="-407.5" font-family="Helvetica,sans-Serif" font-size="14.00" fill="#000000">Personne</text>
<polyline fill="none" stroke="#000000" points="0,-399.3 147.4922,-399.3 "/>
<text text-anchor="middle" x="73.7461" y="-382.7" font-family="Helvetica,sans-Serif" font-size="14.00" fill="#000000">+ idPersonne : int</text>
<polyline fill="none" stroke="#000000" points="0,-374.5 147.4922,-374.5 "/>
<text text-anchor="middle" x="73.7461" y="-357.9" font-family="Helvetica,sans-Serif" font-size="14.00" fill="#000000">nom : varchar</text>
<text text-anchor="middle" x="73.7461" y="-341.1" font-family="Helvetica,sans-Serif" font-size="14.00" fill="#000000">prénom : varchar</text>
<text text-anchor="middle" x="73.7461" y="-324.3" font-family="Helvetica,sans-Serif" font-size="14.00" fill="#000000">dateNaissance : date</text>
</g>
<!-- acteur -->
<g id="node2" class="node">
<title>acteur</title>
<polygon fill="none" stroke="#000000" points="109.284,-158.3 109.284,-224.7 234.2082,-224.7 234.2082,-158.3 109.284,-158.3"/>
<text text-anchor="middle" x="171.7461" y="-208.1" font-family="Helvetica,sans-Serif" font-size="14.00" fill="#000000">Acteur</text>
<polyline fill="none" stroke="#000000" points="109.284,-199.9 234.2082,-199.9 "/>
<text text-anchor="middle" x="171.7461" y="-183.3" font-family="Helvetica,sans-Serif" font-size="14.00" fill="#000000">+ idActeur : int</text>
<text text-anchor="middle" x="171.7461" y="-166.5" font-family="Helvetica,sans-Serif" font-size="14.00" fill="#000000"># idPersonne : int</text>
</g>
<!-- personne&#45;&gt;acteur -->
<g id="edge1" class="edge">
<title>personne-&gt;acteur</title>
<path fill="none" stroke="#000000" d="M103.4153,-316.0294C119.6963,-286.3581 139.3683,-250.5069 153.4159,-224.9059"/>
<text text-anchor="middle" x="134.4193" y="-285" font-family="Helvetica,sans-Serif" font-size="14.00" fill="#000000">1..1</text>
</g>
<!-- réalisateur -->
<g id="node3" class="node">
<title>réalisateur</title>
<polygon fill="none" stroke="#000000" points="15.8758,-.5 15.8758,-66.9 151.6164,-66.9 151.6164,-.5 15.8758,-.5"/>
<text text-anchor="middle" x="83.7461" y="-50.3" font-family="Helvetica,sans-Serif" font-size="14.00" fill="#000000">Réalisateur</text>
<polyline fill="none" stroke="#000000" points="15.8758,-42.1 151.6164,-42.1 "/>
<text text-anchor="middle" x="83.7461" y="-25.5" font-family="Helvetica,sans-Serif" font-size="14.00" fill="#000000">+ idRéalisateur : int</text>
<text text-anchor="middle" x="83.7461" y="-8.7" font-family="Helvetica,sans-Serif" font-size="14.00" fill="#000000"># idPersonne : int</text>
</g>
<!-- personne&#45;&gt;réalisateur -->
<g id="edge2" class="edge">
<title>personne-&gt;réalisateur</title>
<path fill="none" stroke="#000000" d="M73.6233,-315.9631C73.7253,-265.328 74.4367,-187.6064 77.3997,-120.2 78.1734,-102.5995 79.5655,-83.019 80.8491,-66.9448"/>
<text text-anchor="middle" x="89.4193" y="-187.3" font-family="Helvetica,sans-Serif" font-size="14.00" fill="#000000">1..1</text>
</g>
<!-- film -->
<g id="node4" class="node">
<title>film</title>
<polygon fill="none" stroke="#000000" points="375.0718,-129.1 375.0718,-253.9 510.4204,-253.9 510.4204,-129.1 375.0718,-129.1"/>
<text text-anchor="middle" x="442.7461" y="-237.3" font-family="Helvetica,sans-Serif" font-size="14.00" fill="#000000">Film</text>
<polyline fill="none" stroke="#000000" points="375.0718,-229.1 510.4204,-229.1 "/>
<text text-anchor="middle" x="442.7461" y="-212.5" font-family="Helvetica,sans-Serif" font-size="14.00" fill="#000000">+ idFilm : int</text>
<polyline fill="none" stroke="#000000" points="375.0718,-204.3 510.4204,-204.3 "/>
<text text-anchor="middle" x="442.7461" y="-187.7" font-family="Helvetica,sans-Serif" font-size="14.00" fill="#000000">titre : varchar</text>
<text text-anchor="middle" x="442.7461" y="-170.9" font-family="Helvetica,sans-Serif" font-size="14.00" fill="#000000">durée : int</text>
<text text-anchor="middle" x="442.7461" y="-154.1" font-family="Helvetica,sans-Serif" font-size="14.00" fill="#000000">annéeSortie : year</text>
<text text-anchor="middle" x="442.7461" y="-137.3" font-family="Helvetica,sans-Serif" font-size="14.00" fill="#000000"># idRéalisateur : int</text>
</g>
<!-- film&#45;&gt;réalisateur -->
<g id="edge3" class="edge">
<title>film-&gt;réalisateur</title>
<path fill="none" stroke="#000000" d="M379.2877,-128.955C374.8549,-125.7894 370.3252,-122.8358 365.7461,-120.2 301.8697,-83.4312 220.6841,-60.6652 161.8413,-47.7788"/>
<polygon fill="#000000" stroke="#000000" points="162.3722,-44.3132 151.8609,-45.6407 160.9058,-51.1579 162.3722,-44.3132"/>
<text text-anchor="middle" x="343.5813" y="-89.6" font-family="Helvetica,sans-Serif" font-size="14.00" fill="#000000">N..1</text>
</g>
<!-- genre -->
<g id="node5" class="node">
<title>genre</title>
<polygon fill="none" stroke="#000000" points="252.5936,-154.3 252.5936,-228.7 356.8986,-228.7 356.8986,-154.3 252.5936,-154.3"/>
<text text-anchor="middle" x="304.7461" y="-212.1" font-family="Helvetica,sans-Serif" font-size="14.00" fill="#000000">Genre</text>
<polyline fill="none" stroke="#000000" points="252.5936,-203.9 356.8986,-203.9 "/>
<text text-anchor="middle" x="304.7461" y="-187.3" font-family="Helvetica,sans-Serif" font-size="14.00" fill="#000000">+ idGenre : int</text>
<polyline fill="none" stroke="#000000" points="252.5936,-179.1 356.8986,-179.1 "/>
<text text-anchor="middle" x="304.7461" y="-162.5" font-family="Helvetica,sans-Serif" font-size="14.00" fill="#000000">nom : varchar</text>
</g>
<!-- utilisateur -->
<g id="node6" class="node">
<title>utilisateur</title>
<polygon fill="none" stroke="#000000" points="528.5133,-120.7 528.5133,-262.3 682.9789,-262.3 682.9789,-120.7 528.5133,-120.7"/>
<text text-anchor="middle" x="605.7461" y="-245.7" font-family="Helvetica,sans-Serif" font-size="14.00" fill="#000000">Utilisateur</text>
<polyline fill="none" stroke="#000000" points="528.5133,-237.5 682.9789,-237.5 "/>
<text text-anchor="middle" x="605.7461" y="-220.9" font-family="Helvetica,sans-Serif" font-size="14.00" fill="#000000">+ idUtilisateur : int</text>
<polyline fill="none" stroke="#000000" points="528.5133,-212.7 682.9789,-212.7 "/>
<text text-anchor="middle" x="605.7461" y="-196.1" font-family="Helvetica,sans-Serif" font-size="14.00" fill="#000000">nom : varchar</text>
<text text-anchor="middle" x="605.7461" y="-179.3" font-family="Helvetica,sans-Serif" font-size="14.00" fill="#000000">prénom : varchar</text>
<text text-anchor="middle" x="605.7461" y="-162.5" font-family="Helvetica,sans-Serif" font-size="14.00" fill="#000000">email : varchar</text>
<text text-anchor="middle" x="605.7461" y="-145.7" font-family="Helvetica,sans-Serif" font-size="14.00" fill="#000000">motDePasse : varchar</text>
<text text-anchor="middle" x="605.7461" y="-128.9" font-family="Helvetica,sans-Serif" font-size="14.00" fill="#000000">rôle : varchar</text>
</g>
<!-- filmActeur -->
<g id="node7" class="node">
<title>filmActeur</title>
<polygon fill="none" stroke="#000000" points="186.0126,-324.5 186.0126,-415.7 291.4796,-415.7 291.4796,-324.5 186.0126,-324.5"/>
<text text-anchor="middle" x="238.7461" y="-399.1" font-family="Helvetica,sans-Serif" font-size="14.00" fill="#000000">FilmActeur</text>
<polyline fill="none" stroke="#000000" points="186.0126,-390.9 291.4796,-390.9 "/>
<text text-anchor="middle" x="238.7461" y="-374.3" font-family="Helvetica,sans-Serif" font-size="14.00" fill="#000000"># idFilm : int</text>
<text text-anchor="middle" x="238.7461" y="-357.5" font-family="Helvetica,sans-Serif" font-size="14.00" fill="#000000"># idActeur : int</text>
<polyline fill="none" stroke="#000000" points="186.0126,-349.3 291.4796,-349.3 "/>
<text text-anchor="middle" x="238.7461" y="-332.7" font-family="Helvetica,sans-Serif" font-size="14.00" fill="#000000">rôle : varchar</text>
</g>
<!-- filmActeur&#45;&gt;acteur -->
<g id="edge5" class="edge">
<title>filmActeur-&gt;acteur</title>
<path fill="none" stroke="#000000" d="M206.9448,-324.1815C201.9815,-315.6173 197.323,-306.5422 193.7517,-297.6 185.7899,-277.6647 180.5538,-254.4209 177.1952,-234.7789"/>
<polygon fill="#000000" stroke="#000000" points="180.6458,-234.1915 175.6056,-224.8724 173.7343,-235.3006 180.6458,-234.1915"/>
<text text-anchor="middle" x="208.7433" y="-285" font-family="Helvetica,sans-Serif" font-size="14.00" fill="#000000">N..N</text>
</g>
<!-- filmActeur&#45;&gt;film -->
<g id="edge4" class="edge">
<title>filmActeur-&gt;film</title>
<path fill="none" stroke="#000000" d="M275.8138,-324.1836C289.6978,-308.991 306.3525,-292.8956 323.7517,-280.8 340.425,-269.209 348.7157,-273.8597 365.7461,-262.8 367.0353,-261.9628 368.3232,-261.1033 369.6084,-260.2239"/>
<polygon fill="#000000" stroke="#000000" points="371.9667,-262.8389 378.0385,-254.1565 367.8776,-257.1574 371.9667,-262.8389"/>
<text text-anchor="middle" x="338.7433" y="-285" font-family="Helvetica,sans-Serif" font-size="14.00" fill="#000000">N..N</text>
</g>
<!-- filmGenre -->
<g id="node8" class="node">
<title>filmGenre</title>
<polygon fill="none" stroke="#000000" points="353.7896,-336.9 353.7896,-403.3 457.7026,-403.3 457.7026,-336.9 353.7896,-336.9"/>
<text text-anchor="middle" x="405.7461" y="-386.7" font-family="Helvetica,sans-Serif" font-size="14.00" fill="#000000">FilmGenre</text>
<polyline fill="none" stroke="#000000" points="353.7896,-378.5 457.7026,-378.5 "/>
<text text-anchor="middle" x="405.7461" y="-361.9" font-family="Helvetica,sans-Serif" font-size="14.00" fill="#000000"># idFilm : int</text>
<text text-anchor="middle" x="405.7461" y="-345.1" font-family="Helvetica,sans-Serif" font-size="14.00" fill="#000000"># idGenre : int</text>
</g>
<!-- filmGenre&#45;&gt;film -->
<g id="edge6" class="edge">
<title>filmGenre-&gt;film</title>
<path fill="none" stroke="#000000" d="M411.8717,-336.5492C415.0005,-319.7794 418.9428,-299.1904 422.7517,-280.8 423.8593,-275.4522 425.0299,-269.9305 426.2267,-264.378"/>
<polygon fill="#000000" stroke="#000000" points="429.6957,-264.8965 428.4012,-254.3811 422.8557,-263.4086 429.6957,-264.8965"/>
<text text-anchor="middle" x="437.7433" y="-285" font-family="Helvetica,sans-Serif" font-size="14.00" fill="#000000">N..N</text>
</g>
<!-- filmGenre&#45;&gt;genre -->
<g id="edge7" class="edge">
<title>filmGenre-&gt;genre</title>
<path fill="none" stroke="#000000" d="M386.7488,-336.5067C370.99,-308.6402 348.4169,-268.7238 330.9421,-237.8228"/>
<polygon fill="#000000" stroke="#000000" points="333.8968,-235.9374 325.9277,-228.9557 327.8036,-239.3832 333.8968,-235.9374"/>
<text text-anchor="middle" x="378.7433" y="-285" font-family="Helvetica,sans-Serif" font-size="14.00" fill="#000000">N..N</text>
</g>
<!-- filmPréféré -->
<g id="node9" class="node">
<title>filmPréféré</title>
<polygon fill="none" stroke="#000000" points="509.1311,-336.9 509.1311,-403.3 636.3611,-403.3 636.3611,-336.9 509.1311,-336.9"/>
<text text-anchor="middle" x="572.7461" y="-386.7" font-family="Helvetica,sans-Serif" font-size="14.00" fill="#000000">FilmPréféré</text>
<polyline fill="none" stroke="#000000" points="509.1311,-378.5 636.3611,-378.5 "/>
<text text-anchor="middle" x="572.7461" y="-361.9" font-family="Helvetica,sans-Serif" font-size="14.00" fill="#000000"># idUtilisateur : int</text>
<text text-anchor="middle" x="572.7461" y="-345.1" font-family="Helvetica,sans-Serif" font-size="14.00" fill="#000000"># idFilm : int</text>
</g>
<!-- filmPréféré&#45;&gt;film -->
<g id="edge9" class="edge">
<title>filmPréféré-&gt;film</title>
<path fill="none" stroke="#000000" d="M548.2941,-336.5067C533.0959,-315.6267 512.9733,-287.9814 494.3768,-262.4326"/>
<polygon fill="#000000" stroke="#000000" points="497.1155,-260.2477 488.4007,-254.2224 491.4559,-264.3672 497.1155,-260.2477"/>
<text text-anchor="middle" x="533.7433" y="-285" font-family="Helvetica,sans-Serif" font-size="14.00" fill="#000000">N..N</text>
</g>
<!-- filmPréféré&#45;&gt;utilisateur -->
<g id="edge8" class="edge">
<title>filmPréféré-&gt;utilisateur</title>
<path fill="none" stroke="#000000" d="M578.9531,-336.5067C582.3035,-318.3743 586.5965,-295.14 590.7599,-272.6072"/>
<polygon fill="#000000" stroke="#000000" points="594.2209,-273.1383 592.5962,-262.6688 587.3374,-271.8664 594.2209,-273.1383"/>
<text text-anchor="middle" x="603.7433" y="-285" font-family="Helvetica,sans-Serif" font-size="14.00" fill="#000000">N..N</text>
</g>
</g>
</svg>