<?xml version="1.0" encoding="UTF-8" standalone="no"?><!DOCTYPE svg PUBLIC "-//W3C//DTD SVG 1.1//EN" "http://www.w3.org/Graphics/SVG/1.1/DTD/svg11.dtd"><!-- Generated by graphviz version 2.40.1 (20161225.0304)
 --><!-- Title: MLD_plateformedb Pages: 1 --><svg xmlns="http://www.w3.org/2000/svg" xmlns:xlink="http://www.w3.org/1999/xlink" width="535pt" height="628pt" viewBox="0.00 0.00 534.69 628.20">
<g id="graph0" class="graph" transform="scale(1 1) rotate(0) translate(4 624.2)">
<title>MLD_plateformedb</title>
<polygon fill="#ffffff" stroke="transparent" points="-4,4 -4,-624.2 530.6949,-624.2 530.6949,4 -4,4"/>
<!-- personne -->
<g id="node1" class="node">
<title>personne</title>
<polygon fill="none" stroke="#000000" points="41.716,-.5 41.716,-108.5 189.2082,-108.5 189.2082,-.5 41.716,-.5"/>
<text text-anchor="middle" x="115.4621" y="-91.9" font-family="Helvetica,sans-Serif" font-size="14.00" fill="#000000">Personne</text>
<polyline fill="none" stroke="#000000" points="41.716,-83.7 189.2082,-83.7 "/>
<text text-anchor="middle" x="115.4621" y="-67.1" font-family="Helvetica,sans-Serif" font-size="14.00" fill="#000000">+ idPersonne : int</text>
<polyline fill="none" stroke="#000000" points="41.716,-58.9 189.2082,-58.9 "/>
<text text-anchor="middle" x="115.4621" y="-42.3" font-family="Helvetica,sans-Serif" font-size="14.00" fill="#000000">nom : varchar</text>
<text text-anchor="middle" x="115.4621" y="-25.5" font-family="Helvetica,sans-Serif" font-size="14.00" fill="#000000">prénom : varchar</text>
<text text-anchor="middle" x="115.4621" y="-8.7" font-family="Helvetica,sans-Serif" font-size="14.00" fill="#000000">dateNaissance : date</text>
</g>
<!-- acteur -->
<g id="node2" class="node">
<title>acteur</title>
<polygon fill="none" stroke="#000000" points="0,-247.7 0,-314.1 124.9242,-314.1 124.9242,-247.7 0,-247.7"/>
<text text-anchor="middle" x="62.4621" y="-297.5" font-family="Helvetica,sans-Serif" font-size="14.00" fill="#000000">Acteur</text>
<polyline fill="none" stroke="#000000" points="0,-289.3 124.9242,-289.3 "/>
<text text-anchor="middle" x="62.4621" y="-272.7" font-family="Helvetica,sans-Serif" font-size="14.00" fill="#000000">+ idActeur : int</text>
<text text-anchor="middle" x="62.4621" y="-255.9" font-family="Helvetica,sans-Serif" font-size="14.00" fill="#000000"># idPersonne : int</text>
</g>
<!-- acteur&#45;&gt;personne -->
<g id="edge1" class="edge">
<title>acteur-&gt;personne</title>
<path fill="none" stroke="#000000" d="M70.2824,-247.4939C78.1997,-213.6737 90.6431,-160.5194 100.468,-118.5504"/>
<polygon fill="#000000" stroke="#000000" points="103.9052,-119.2225 102.7768,-108.688 97.0894,-117.6269 103.9052,-119.2225"/>
<text text-anchor="middle" x="131.6984" y="-191.3" font-family="Helvetica,sans-Serif" font-size="14.00" fill="#000000"># idPersonne</text>
</g>
<!-- réalisateur -->
<g id="node3" class="node">
<title>réalisateur</title>
<polygon fill="none" stroke="#000000" points="208.5918,-162.3 208.5918,-228.7 344.3324,-228.7 344.3324,-162.3 208.5918,-162.3"/>
<text text-anchor="middle" x="276.4621" y="-212.1" font-family="Helvetica,sans-Serif" font-size="14.00" fill="#000000">Réalisateur</text>
<polyline fill="none" stroke="#000000" points="208.5918,-203.9 344.3324,-203.9 "/>
<text text-anchor="middle" x="276.4621" y="-187.3" font-family="Helvetica,sans-Serif" font-size="14.00" fill="#000000">+ idRéalisateur : int</text>
<text text-anchor="middle" x="276.4621" y="-170.5" font-family="Helvetica,sans-Serif" font-size="14.00" fill="#000000"># idPersonne : int</text>
</g>
<!-- réalisateur&#45;&gt;personne -->
<g id="edge2" class="edge">
<title>réalisateur-&gt;personne</title>
<path fill="none" stroke="#000000" d="M238.3073,-162.085C222.3599,-148.1186 203.3129,-131.4377 185.0321,-115.4278"/>
<polygon fill="#000000" stroke="#000000" points="187.0845,-112.5727 177.2556,-108.6173 182.4726,-117.8387 187.0845,-112.5727"/>
<text text-anchor="middle" x="256.6984" y="-131.2" font-family="Helvetica,sans-Serif" font-size="14.00" fill="#000000"># idPersonne</text>
</g>
<!-- film -->
<g id="node4" class="node">
<title>film</title>
<polygon fill="none" stroke="#000000" points="218.7878,-341.5 218.7878,-466.3 354.1364,-466.3 354.1364,-341.5 218.7878,-341.5"/>
<text text-anchor="middle" x="286.4621" y="-449.7" font-family="Helvetica,sans-Serif" font-size="14.00" fill="#000000">Film</text>
<polyline fill="none" stroke="#000000" points="218.7878,-441.5 354.1364,-441.5 "/>
<text text-anchor="middle" x="286.4621" y="-424.9" font-family="Helvetica,sans-Serif" font-size="14.00" fill="#000000">+ idFilm : int</text>
<polyline fill="none" stroke="#000000" points="218.7878,-416.7 354.1364,-416.7 "/>
<text text-anchor="middle" x="286.4621" y="-400.1" font-family="Helvetica,sans-Serif" font-size="14.00" fill="#000000">titre : varchar</text>
<text text-anchor="middle" x="286.4621" y="-383.3" font-family="Helvetica,sans-Serif" font-size="14.00" fill="#000000">durée : int</text>
<text text-anchor="middle" x="286.4621" y="-366.5" font-family="Helvetica,sans-Serif" font-size="14.00" fill="#000000">annéeSortie : year</text>
<text text-anchor="middle" x="286.4621" y="-349.7" font-family="Helvetica,sans-Serif" font-size="14.00" fill="#000000"># idRéalisateur : int</text>
</g>
<!-- film&#45;&gt;réalisateur -->
<g id="edge3" class="edge">
<title>film-&gt;réalisateur</title>
<path fill="none" stroke="#000000" d="M283.4618,-341.3731C281.8767,-308.3406 279.9707,-268.6184 278.5481,-238.9713"/>
<polygon fill="#000000" stroke="#000000" points="282.0417,-238.7532 278.0663,-228.9325 275.0498,-239.0888 282.0417,-238.7532"/>
<text text-anchor="middle" x="328.9106" y="-276.7" font-family="Helvetica,sans-Serif" font-size="14.00" fill="#000000"># idRéalisateur</text>
</g>
<!-- genre -->
<g id="node5" class="node">
<title>genre</title>
<polygon fill="none" stroke="#000000" points="96.3096,-366.7 96.3096,-441.1 200.6146,-441.1 200.6146,-366.7 96.3096,-366.7"/>
<text text-anchor="middle" x="148.4621" y="-424.5" font-family="Helvetica,sans-Serif" font-size="14.00" fill="#000000">Genre</text>
<polyline fill="none" stroke="#000000" points="96.3096,-416.3 200.6146,-416.3 "/>
<text text-anchor="middle" x="148.4621" y="-399.7" font-family="Helvetica,sans-Serif" font-size="14.00" fill="#000000">+ idGenre : int</text>
<polyline fill="none" stroke="#000000" points="96.3096,-391.5 200.6146,-391.5 "/>
<text text-anchor="middle" x="148.4621" y="-374.9" font-family="Helvetica,sans-Serif" font-size="14.00" fill="#000000">nom : varchar</text>
</g>
<!-- utilisateur -->
<g id="node6" class="node">
<title>utilisateur</title>
<polygon fill="none" stroke="#000000" points="372.2293,-333.1 372.2293,-474.7 526.6949,-474.7 526.6949,-333.1 372.2293,-333.1"/>
<text text-anchor="middle" x="449.4621" y="-458.1" font-family="Helvetica,sans-Serif" font-size="14.00" fill="#000000">Utilisateur</text>
<polyline fill="none" stroke="#000000" points="372.2293,-449.9 526.6949,-449.9 "/>
<text text-anchor="middle" x="449.4621" y="-433.3" font-family="Helvetica,sans-Serif" font-size="14.00" fill="#000000">+ idUtilisateur : int</text>
<polyline fill="none" stroke="#000000" points="372.2293,-425.1 526.6949,-425.1 "/>
<text text-anchor="middle" x="449.4621" y="-408.5" font-family="Helvetica,sans-Serif" font-size="14.00" fill="#000000">nom : varchar</text>
<text text-anchor="middle" x="449.4621" y="-391.7" font-family="Helvetica,sans-Serif" font-size="14.00" fill="#000000">prénom : varchar</text>
<text text-anchor="middle" x="449.4621" y="-374.9" font-family="Helvetica,sans-Serif" font-size="14.00" fill="#000000">email : varchar</text>
<text text-anchor="middle" x="449.4621" y="-358.1" font-family="Helvetica,sans-Serif" font-size="14.00" fill="#000000">motDePasse : varchar</text>
<text text-anchor="middle" x="449.4621" y="-341.3" font-family="Helvetica,sans-Serif" font-size="14.00" fill="#000000">rôle : varchar</text>
</g>
<!-- filmActeur -->
<g id="node7" class="node">
<title>filmActeur</title>
<polygon fill="none" stroke="#000000" points="25.5326,-528.5 25.5326,-619.7 131.3916,-619.7 131.3916,-528.5 25.5326,-528.5"/>
<text text-anchor="middle" x="78.4621" y="-603.1" font-family="Helvetica,sans-Serif" font-size="14.00" fill="#000000">FilmActeur</text>
<polyline fill="none" stroke="#000000" points="25.5326,-594.9 131.3916,-594.9 "/>
<text text-anchor="middle" x="78.4621" y="-578.3" font-family="Helvetica,sans-Serif" font-size="14.00" fill="#000000">+ idFilm : int</text>
<text text-anchor="middle" x="78.4621" y="-561.5" font-family="Helvetica,sans-Serif" font-size="14.00" fill="#000000">+ idActeur : int</text>
<polyline fill="none" stroke="#000000" points="25.5326,-553.3 131.3916,-553.3 "/>
<text text-anchor="middle" x="78.4621" y="-536.7" font-family="Helvetica,sans-Serif" font-size="14.00" fill="#000000">rôle : varchar</text>
</g>
<!-- filmActeur&#45;&gt;acteur -->
<g id="edge4" class="edge">
<title>filmActeur-&gt;acteur</title>
<path fill="none" stroke="#000000" d="M54.9706,-528.3335C52.7029,-522.2971 50.7608,-516.0897 49.4467,-510 35.7358,-446.462 44.789,-370.853 53.1586,-324.3693"/>
<polygon fill="#000000" stroke="#000000" points="56.6362,-324.8135 55.0357,-314.3402 49.7557,-323.5256 56.6362,-324.8135"/>
<text text-anchor="middle" x="80.9698" y="-497.4" font-family="Helvetica,sans-Serif" font-size="14.00" fill="#000000"># idActeur</text>
</g>
<!-- filmActeur&#45;&gt;film -->
<g id="edge5" class="edge">
<title>filmActeur-&gt;film</title>
<path fill="none" stroke="#000000" d="M101.1462,-528.3694C109.6471,-515.2859 120.4643,-502.1594 133.4733,-493.2 162.0575,-473.5138 178.8351,-491.5276 209.4621,-475.2 211.2708,-474.2358 213.0692,-473.2186 214.8547,-472.155"/>
<polygon fill="#000000" stroke="#000000" points="217.1523,-474.8383 223.6634,-466.4802 213.3613,-468.9537 217.1523,-474.8383"/>
<text text-anchor="middle" x="158.9565" y="-497.4" font-family="Helvetica,sans-Serif" font-size="14.00" fill="#000000"># idFilm</text>
</g>
<!-- filmGenre -->
<g id="node8" class="node">
<title>filmGenre</title>
<polygon fill="none" stroke="#000000" points="166.3096,-540.9 166.3096,-607.3 270.6146,-607.3 270.6146,-540.9 166.3096,-540.9"/>
<text text-anchor="middle" x="218.4621" y="-590.7" font-family="Helvetica,sans-Serif" font-size="14.00" fill="#000000">FilmGenre</text>
<polyline fill="none" stroke="#000000" points="166.3096,-582.5 270.6146,-582.5 "/>
<text text-anchor="middle" x="218.4621" y="-565.9" font-family="Helvetica,sans-Serif" font-size="14.00" fill="#000000">+ idFilm : int</text>
<text text-anchor="middle" x="218.4621" y="-549.1" font-family="Helvetica,sans-Serif" font-size="14.00" fill="#000000">+ idGenre : int</text>
</g>
<!-- filmGenre&#45;&gt;film -->
<g id="edge7" class="edge">
<title>filmGenre-&gt;film</title>
<path fill="none" stroke="#000000" d="M246.3545,-540.7787C253.1415,-531.3102 259.7843,-520.6618 264.4621,-510 269.0803,-499.4741 272.7472,-487.9287 275.6539,-476.4499"/>
<polygon fill="#000000" stroke="#000000" points="279.1335,-476.9428 278.0174,-466.407 272.3196,-475.3392 279.1335,-476.9428"/>
<text text-anchor="middle" x="295.9565" y="-497.4" font-family="Helvetica,sans-Serif" font-size="14.00" fill="#000000"># idFilm</text>
</g>
<!-- filmGenre&#45;&gt;genre -->
<g id="edge6" class="edge">
<title>filmGenre-&gt;genre</title>
<path fill="none" stroke="#000000" d="M204.7992,-540.8797C194.2182,-515.1527 179.43,-479.1962 167.6597,-450.5775"/>
<polygon fill="#000000" stroke="#000000" points="170.8348,-449.0958 163.7941,-441.1788 164.361,-451.7584 170.8348,-449.0958"/>
<text text-anchor="middle" x="223.1928" y="-497.4" font-family="Helvetica,sans-Serif" font-size="14.00" fill="#000000"># idGenre</text>
</g>
<!-- filmPréféré -->
<g id="node9" class="node">
<title>filmPréféré</title>
<polygon fill="none" stroke="#000000" points="344.6511,-540.9 344.6511,-607.3 472.2731,-607.3 472.2731,-540.9 344.6511,-540.9"/>
<text text-anchor="middle" x="408.4621" y="-590.7" font-family="Helvetica,sans-Serif" font-size="14.00" fill="#000000">FilmPréféré</text>
<polyline fill="none" stroke="#000000" points="344.6511,-582.5 472.2731,-582.5 "/>
<text text-anchor="middle" x="408.4621" y="-565.9" font-family="Helvetica,sans-Serif" font-size="14.00" fill="#000000">+ idUtilisateur : int</text>
<text text-anchor="middle" x="408.4621" y="-549.1" font-family="Helvetica,sans-Serif" font-size="14.00" fill="#000000">+ idFilm : int</text>
</g>
<!-- filmPréféré&#45;&gt;film -->
<g id="edge9" class="edge">
<title>filmPréféré-&gt;film</title>
<path fill="none" stroke="#000000" d="M384.6497,-540.8797C371.1243,-522.0107 353.6546,-497.639 337.2086,-474.6955"/>
<polygon fill="#000000" stroke="#000000" points="339.8757,-472.4087 331.2051,-466.3201 334.1864,-476.4869 339.8757,-472.4087"/>
<text text-anchor="middle" x="385.9565" y="-497.4" font-family="Helvetica,sans-Serif" font-size="14.00" fill="#000000"># idFilm</text>
</g>
<!-- filmPréféré&#45;&gt;utilisateur -->
<g id="edge8" class="edge">
<title>filmPréféré-&gt;utilisateur</title>
<path fill="none" stroke="#000000" d="M416.4646,-540.8797C420.3699,-524.668 425.2537,-504.3945 430.057,-484.4547"/>
<polygon fill="#000000" stroke="#000000" points="433.4646,-485.2537 432.404,-474.7121 426.6593,-483.6143 433.4646,-485.2537"/>
<text text-anchor="middle" x="469.8513" y="-497.4" font-family="Helvetica,sans-Serif" font-size="14.00" fill="#000000"># idUtilisateur</text>
</g>
</g>
</svg>